# xmcd CD database file
#
# Track frame offsets:
#	150
#	16074
#	29960
#	43570
#	55017
#	70586
#	84682
#	98229
#	118792
#	132230
#	151602
#	167923
#
# Disc length: 2511 seconds
#
# Revision: 3
# Processed by: cddbd v1.5.2PL0 Copyright (c) Steve Scherf et al.
# Submitted via: CDex 2.21
#
DISCID=9609cd0c
DTITLE=Terri Clark - Classic
DYEAR=2012
DGENRE=Country
TTITLE0=It Wasn't God Who Made Honky Tonk Angels
TTITLE1=Love Is a Rose
TTITLE2=How Blue
TTITLE3=Don't Come Home a Drinkin' (With Lovin' On Your Mind)
TTITLE4=Gentle On My Mind
TTITLE5=Golden Ring
TTITLE6=Two More Bottles of Wine
TTITLE7=Leavin' On Your Mind
TTITLE8=Swinging Doors
TTITLE9=Delta Dawn
TTITLE10=I'm Movin' On
TTITLE11=Leavin' On Your Mind (Acoustic Version)
EXTD=YEAR: 2012
EXTT0=
EXTT1=
EXTT2=
EXTT3=
EXTT4=
EXTT5=
EXTT6=
EXTT7=
EXTT8=
EXTT9=
EXTT10=
EXTT11=
PLAYORDER=
